# xmcd
#
# Track frame offsets: 
#        150
#        8282
#        23529
#        38228
#        47553
#        59969
#        79305
#        88836
#        103600
#        112219
#        136610
#        151499
#        167111
#        183271
#        196812
#        204372
#        221393
#
# Disc length: 3161 seconds
#
# Revision: 0
# Processed by: cddbd v1.5.2PL0 Copyright (c) Steve Scherf et al.
# Submitted via: ExactAudioCopy v0.95b4
#
DISCID=dc0c5711
DTITLE=Hope for Agoldensummer - Ariadne Thread
DYEAR=2007
DGENRE=Folk
TTITLE0=Hold Me Close In The Hallway
TTITLE1=Katelina, Dear
TTITLE2=Roadsigns
TTITLE3=Watermelon Heart
TTITLE4=Don't Turn Away
TTITLE5=Faded on the 14th
TTITLE6=Man of Faith
TTITLE7=I Am Not The Same
TTITLE8=I Give You What I Want
TTITLE9=Last Summer's Beach Trip
TTITLE10=Page's Instrumental
TTITLE11=4th Night
TTITLE12=Candy Dots
TTITLE13=New Whiskey River
TTITLE14=Luke's Song
TTITLE15=Threads
TTITLE16=Old Questions
EXTD=
EXTT0=
EXTT1=
EXTT2=
EXTT3=
EXTT4=
EXTT5=
EXTT6=
EXTT7=
EXTT8=
EXTT9=
EXTT10=
EXTT11=
EXTT12=
EXTT13=
EXTT14=
EXTT15=
EXTT16=
PLAYORDER=
